<region> sample=samples/overblown_flute/spitfluteA3-1.wav count=1 lokey= hikey= pitch_keycenter=
<region> sample=samples/overblown_flute/spitfluteA3-2.wav count=1 lokey= hikey= pitch_keycenter=
<region> sample=samples/overblown_flute/spitfluteB3-1.wav count=1 lokey= hikey= pitch_keycenter=
<region> sample=samples/overblown_flute/spitfluteB3-2.wav count=1 lokey= hikey= pitch_keycenter=
<region> sample=samples/overblown_flute/spitfluteC#3-1.wav count=1 lokey= hikey= pitch_keycenter=
<region> sample=samples/overblown_flute/spitfluteC#3-2.wav count=1 lokey= hikey= pitch_keycenter=
<region> sample=samples/overblown_flute/spitfluteD#3-1.wav count=1 lokey= hikey= pitch_keycenter=
<region> sample=samples/overblown_flute/spitfluteD#3-2.wav count=1 lokey= hikey= pitch_keycenter=
<region> sample=samples/overblown_flute/spitfluteE3-1.wav count=1 lokey= hikey= pitch_keycenter=
<region> sample=samples/overblown_flute/spitfluteE3-2.wav count=1 lokey= hikey= pitch_keycenter=
<region> sample=samples/overblown_flute/spitfluteF3-1.wav count=1 lokey= hikey= pitch_keycenter=
<region> sample=samples/overblown_flute/spitfluteF3-2.wav count=1 lokey= hikey= pitch_keycenter=
<region> sample=samples/overblown_flute/spitfluteG3-1.wav count=1 lokey= hikey= pitch_keycenter=
<region> sample=samples/overblown_flute/spitfluteG3-2.wav count=1 lokey= hikey= pitch_keycenter=
